<svg xmlns="http://www.w3.org/2000/svg" viewBox="0 0 100 100" fill="black">
  <!-- Brain outline -->
  <path d="M20,50c-5,-20 10,-35 30,-30 5,-10 20,-10 25,0 15,-5 30,10 25,25 10,5 10,20 0,25 5,15 -10,30 -25,25 -5,10 -20,10 -25,0 -20,5 -35,-10 -30,-30z"/>
  
  <!-- Circuit lines inside brain -->
  <circle cx="35" cy="45" r="2" />
  <circle cx="50" cy="35" r="2" />
  <circle cx="50" cy="55" r="2" />
  <circle cx="65" cy="40" r="2" />
  <path d="M35,45 L50,35" stroke="black" stroke-width="2" fill="none" />
  <path d="M35,45 L50,55" stroke="black" stroke-width="2" fill="none" />
  <path d="M50,35 L65,40" stroke="black" stroke-width="2" fill="none" />

  <!-- Checkmark -->
  <path d="M30,60 L45,75 L75,40" stroke="black" stroke-width="5" fill="none" />
</svg>
